STARTFONT 2.1
COMMENT 
COMMENT Donated by H. Kagotani <kagotani@cs.titech.ac.jp>; public domain
COMMENT font from Japan
COMMENT 92.07.20 modified by Takahashi N. <ntakahas@etl.go.jp>
COMMENT 94.09.14 modified by Takahashi N. <ntakahas@etl.go.jp>
FONT -ETL-Fixed_sup-Medium-R-Normal--14-140-72-72-C-70-ISO8859-9
SIZE 14 72 72
FONTBOUNDINGBOX 7 14 0 3
STARTPROPERTIES 19
FONTNAME_REGISTRY ""
FOUNDRY "ETL"
FAMILY_NAME "Fixed_sup"
WEIGHT_NAME "Medium"
SLANT "R"
SETWIDTH_NAME "Normal"
ADD_STYLE_NAME ""
PIXEL_SIZE 14
POINT_SIZE 140
RESOLUTION_X 72
RESOLUTION_Y 72
SPACING "C"
AVERAGE_WIDTH 70
CHARSET_REGISTRY "ISO8859"
CHARSET_ENCODING "9"
DEFAULT_CHAR 32
FONT_DESCENT 0
FONT_ASCENT 17
COPYRIGHT "Public domain font.  Share and enjoy."
ENDPROPERTIES
CHARS 191
STARTCHAR SPACE
ENCODING 32
SWIDTH 500 0
DWIDTH 7 0
BBX 7 14 0 3
BITMAP
00
00
00
00
00
00
00
00
00
00
00
00
00
00
ENDCHAR
STARTCHAR EXCLAMATION MARK
ENCODING 33
SWIDTH 500 0
DWIDTH 7 0
BBX 7 14 0 3
BITMAP
00
00
00
10
10
10
10
10
10
00
10
10
00
00
ENDCHAR
STARTCHAR QUOTATION MARK
ENCODING 34
SWIDTH 500 0
DWIDTH 7 0
BBX 7 14 0 3
BITMAP
00
00
6c
24
24
48
00
00
00
00
00
00
00
00
ENDCHAR
STARTCHAR NUMBER SIGN
ENCODING 35
SWIDTH 500 0
DWIDTH 7 0
BBX 7 14 0 3
BITMAP
00
00
00
12
12
7e
24
24
24
7e
48
48
00
00
ENDCHAR
STARTCHAR DOLLAR SIGN
ENCODING 36
SWIDTH 500 0
DWIDTH 7 0
BBX 7 14 0 3
BITMAP
00
00
00
08
3c
4a
48
28
1c
4a
4a
3c
08
00
ENDCHAR
STARTCHAR PERCENT SIGN
ENCODING 37
SWIDTH 500 0
DWIDTH 7 0
BBX 7 14 0 3
BITMAP
00
00
00
32
4a
4c
38
10
1c
32
52
4c
00
00
ENDCHAR
STARTCHAR AMPERSAND
ENCODING 38
SWIDTH 500 0
DWIDTH 7 0
BBX 7 14 0 3
BITMAP
00
00
00
18
24
24
18
32
4a
44
4c
32
00
00
ENDCHAR
STARTCHAR APOSTROPHE
ENCODING 39
SWIDTH 500 0
DWIDTH 7 0
BBX 7 14 0 3
BITMAP
00
00
30
10
10
20
00
00
00
00
00
00
00
00
ENDCHAR
STARTCHAR LEFT PARENTHESIS
ENCODING 40
SWIDTH 500 0
DWIDTH 7 0
BBX 7 14 0 3
BITMAP
00
00
04
08
08
10
10
10
10
10
08
08
04
00
ENDCHAR
STARTCHAR RIGHT PARENTHESIS
ENCODING 41
SWIDTH 500 0
DWIDTH 7 0
BBX 7 14 0 3
BITMAP
00
00
40
20
20
10
10
10
10
10
20
20
40
00
ENDCHAR
STARTCHAR ASTERISK
ENCODING 42
SWIDTH 500 0
DWIDTH 7 0
BBX 7 14 0 3
BITMAP
00
00
00
00
10
54
38
10
38
54
10
00
00
00
ENDCHAR
STARTCHAR PLUS SIGN
ENCODING 43
SWIDTH 500 0
DWIDTH 7 0
BBX 7 14 0 3
BITMAP
00
00
00
00
10
10
10
7c
10
10
10
00
00
00
ENDCHAR
STARTCHAR COMMA
ENCODING 44
SWIDTH 500 0
DWIDTH 7 0
BBX 7 14 0 3
BITMAP
00
00
00
00
00
00
00
00
00
00
18
08
08
10
ENDCHAR
STARTCHAR HYPHEN, MINUS SIGN
ENCODING 45
SWIDTH 500 0
DWIDTH 7 0
BBX 7 14 0 3
BITMAP
00
00
00
00
00
00
00
7c
00
00
00
00
00
00
ENDCHAR
STARTCHAR FULL STOP
ENCODING 46
SWIDTH 500 0
DWIDTH 7 0
BBX 7 14 0 3
BITMAP
00
00
00
00
00
00
00
00
00
00
18
18
00
00
ENDCHAR
STARTCHAR SOLIDUS
ENCODING 47
SWIDTH 500 0
DWIDTH 7 0
BBX 7 14 0 3
BITMAP
00
00
00
04
04
08
08
10
20
20
40
40
00
00
ENDCHAR
STARTCHAR DIGIT ZERO
ENCODING 48
SWIDTH 500 0
DWIDTH 7 0
BBX 7 14 0 3
BITMAP
00
00
00
18
24
42
42
42
42
42
24
18
00
00
ENDCHAR
STARTCHAR DIGIT ONE
ENCODING 49
SWIDTH 500 0
DWIDTH 7 0
BBX 7 14 0 3
BITMAP
00
00
00
10
30
50
10
10
10
10
10
7c
00
00
ENDCHAR
STARTCHAR DIGIT TWO
ENCODING 50
SWIDTH 500 0
DWIDTH 7 0
BBX 7 14 0 3
BITMAP
00
00
00
3c
42
42
02
0c
10
20
40
7e
00
00
ENDCHAR
STARTCHAR DIGIT THREE
ENCODING 51
SWIDTH 500 0
DWIDTH 7 0
BBX 7 14 0 3
BITMAP
00
00
00
3c
42
42
02
1c
02
42
42
3c
00
00
ENDCHAR
STARTCHAR DIGIT FOUR
ENCODING 52
SWIDTH 500 0
DWIDTH 7 0
BBX 7 14 0 3
BITMAP
00
00
00
04
0c
14
14
24
44
7e
04
04
00
00
ENDCHAR
STARTCHAR DIGIT FIVE
ENCODING 53
SWIDTH 500 0
DWIDTH 7 0
BBX 7 14 0 3
BITMAP
00
00
00
7e
40
40
7c
02
02
02
42
3c
00
00
ENDCHAR
STARTCHAR DIGIT SIX
ENCODING 54
SWIDTH 500 0
DWIDTH 7 0
BBX 7 14 0 3
BITMAP
00
00
00
3c
42
40
40
7c
42
42
42
3c
00
00
ENDCHAR
STARTCHAR DIGIT SEVEN
ENCODING 55
SWIDTH 500 0
DWIDTH 7 0
BBX 7 14 0 3
BITMAP
00
00
00
7e
02
04
04
08
08
10
10
10
00
00
ENDCHAR
STARTCHAR DIGIT EIGHT
ENCODING 56
SWIDTH 500 0
DWIDTH 7 0
BBX 7 14 0 3
BITMAP
00
00
00
3c
42
42
42
3c
42
42
42
3c
00
00
ENDCHAR
STARTCHAR DIGIT NINE
ENCODING 57
SWIDTH 500 0
DWIDTH 7 0
BBX 7 14 0 3
BITMAP
00
00
00
3c
42
42
42
3e
02
42
42
3c
00
00
ENDCHAR
STARTCHAR COLON
ENCODING 58
SWIDTH 500 0
DWIDTH 7 0
BBX 7 14 0 3
BITMAP
00
00
00
00
00
18
18
00
00
00
18
18
00
00
ENDCHAR
STARTCHAR SEMICOLON
ENCODING 59
SWIDTH 500 0
DWIDTH 7 0
BBX 7 14 0 3
BITMAP
00
00
00
00
00
18
18
00
00
00
18
08
08
10
ENDCHAR
STARTCHAR LESS-THAN SIGN
ENCODING 60
SWIDTH 500 0
DWIDTH 7 0
BBX 7 14 0 3
BITMAP
00
00
00
00
00
04
08
10
20
10
08
04
00
00
ENDCHAR
STARTCHAR EQUALS SIGN
ENCODING 61
SWIDTH 500 0
DWIDTH 7 0
BBX 7 14 0 3
BITMAP
00
00
00
00
00
00
7c
00
00
7c
00
00
00
00
ENDCHAR
STARTCHAR GREATER-THAN SIGN
ENCODING 62
SWIDTH 500 0
DWIDTH 7 0
BBX 7 14 0 3
BITMAP
00
00
00
00
00
20
10
08
04
08
10
20
00
00
ENDCHAR
STARTCHAR QUESTION MARK
ENCODING 63
SWIDTH 500 0
DWIDTH 7 0
BBX 7 14 0 3
BITMAP
00
00
00
3c
42
42
04
08
08
00
08
08
00
00
ENDCHAR
STARTCHAR COMMERCIAL AT
ENCODING 64
SWIDTH 500 0
DWIDTH 7 0
BBX 7 14 0 3
BITMAP
00
00
00
1c
22
4e
52
52
52
4e
20
1e
00
00
ENDCHAR
STARTCHAR CAPITAL LETTER A
ENCODING 65
SWIDTH 500 0
DWIDTH 7 0
BBX 7 14 0 3
BITMAP
00
00
00
18
24
42
42
7e
42
42
42
42
00
00
ENDCHAR
STARTCHAR CAPITAL LETTER B
ENCODING 66
SWIDTH 500 0
DWIDTH 7 0
BBX 7 14 0 3
BITMAP
00
00
00
7c
22
22
22
3c
22
22
22
7c
00
00
ENDCHAR
STARTCHAR CAPITAL LETTER C
ENCODING 67
SWIDTH 500 0
DWIDTH 7 0
BBX 7 14 0 3
BITMAP
00
00
00
3c
42
42
40
40
40
42
42
3c
00
00
ENDCHAR
STARTCHAR CAPITAL LETTER D
ENCODING 68
SWIDTH 500 0
DWIDTH 7 0
BBX 7 14 0 3
BITMAP
00
00
00
7c
22
22
22
22
22
22
22
7c
00
00
ENDCHAR
STARTCHAR CAPITAL LETTER E
ENCODING 69
SWIDTH 500 0
DWIDTH 7 0
BBX 7 14 0 3
BITMAP
00
00
00
7e
40
40
40
7c
40
40
40
7e
00
00
ENDCHAR
STARTCHAR CAPITAL LETTER F
ENCODING 70
SWIDTH 500 0
DWIDTH 7 0
BBX 7 14 0 3
BITMAP
00
00
00
7e
40
40
40
7c
40
40
40
40
00
00
ENDCHAR
STARTCHAR CAPITAL LETTER G
ENCODING 71
SWIDTH 500 0
DWIDTH 7 0
BBX 7 14 0 3
BITMAP
00
00
00
3c
42
40
40
4e
42
42
46
3a
00
00
ENDCHAR
STARTCHAR CAPITAL LETTER H
ENCODING 72
SWIDTH 500 0
DWIDTH 7 0
BBX 7 14 0 3
BITMAP
00
00
00
42
42
42
42
7e
42
42
42
42
00
00
ENDCHAR
STARTCHAR CAPITAL LETTER I
ENCODING 73
SWIDTH 500 0
DWIDTH 7 0
BBX 7 14 0 3
BITMAP
00
00
00
7c
10
10
10
10
10
10
10
7c
00
00
ENDCHAR
STARTCHAR CAPITAL LETTER J
ENCODING 74
SWIDTH 500 0
DWIDTH 7 0
BBX 7 14 0 3
BITMAP
00
00
00
0e
04
04
04
04
04
44
44
38
00
00
ENDCHAR
STARTCHAR CAPITAL LETTER K
ENCODING 75
SWIDTH 500 0
DWIDTH 7 0
BBX 7 14 0 3
BITMAP
00
00
00
42
44
48
50
60
50
48
44
42
00
00
ENDCHAR
STARTCHAR CAPITAL LETTER L
ENCODING 76
SWIDTH 500 0
DWIDTH 7 0
BBX 7 14 0 3
BITMAP
00
00
00
40
40
40
40
40
40
40
40
7e
00
00
ENDCHAR
STARTCHAR CAPITAL LETTER M
ENCODING 77
SWIDTH 500 0
DWIDTH 7 0
BBX 7 14 0 3
BITMAP
00
00
00
42
66
66
5a
5a
42
42
42
42
00
00
ENDCHAR
STARTCHAR CAPITAL LETTER N
ENCODING 78
SWIDTH 500 0
DWIDTH 7 0
BBX 7 14 0 3
BITMAP
00
00
00
62
62
52
52
4a
4a
46
46
42
00
00
ENDCHAR
STARTCHAR CAPITAL LETTER O
ENCODING 79
SWIDTH 500 0
DWIDTH 7 0
BBX 7 14 0 3
BITMAP
00
00
00
3c
42
42
42
42
42
42
42
3c
00
00
ENDCHAR
STARTCHAR CAPITAL LETTER P
ENCODING 80
SWIDTH 500 0
DWIDTH 7 0
BBX 7 14 0 3
BITMAP
00
00
00
7c
42
42
42
7c
40
40
40
40
00
00
ENDCHAR
STARTCHAR CAPITAL LETTER Q
ENCODING 81
SWIDTH 500 0
DWIDTH 7 0
BBX 7 14 0 3
BITMAP
00
00
00
3c
42
42
42
42
72
4a
46
3c
04
02
ENDCHAR
STARTCHAR CAPITAL LETTER R
ENCODING 82
SWIDTH 500 0
DWIDTH 7 0
BBX 7 14 0 3
BITMAP
00
00
00
7c
42
42
42
7c
48
44
42
42
00
00
ENDCHAR
STARTCHAR CAPITAL LETTER S
ENCODING 83
SWIDTH 500 0
DWIDTH 7 0
BBX 7 14 0 3
BITMAP
00
00
00
3c
42
40
30
0c
02
42
42
3c
00
00
ENDCHAR
STARTCHAR CAPITAL LETTER T
ENCODING 84
SWIDTH 500 0
DWIDTH 7 0
BBX 7 14 0 3
BITMAP
00
00
00
fe
10
10
10
10
10
10
10
10
00
00
ENDCHAR
STARTCHAR CAPITAL LETTER U
ENCODING 85
SWIDTH 500 0
DWIDTH 7 0
BBX 7 14 0 3
BITMAP
00
00
00
42
42
42
42
42
42
42
42
3c
00
00
ENDCHAR
STARTCHAR CAPITAL LETTER V
ENCODING 86
SWIDTH 500 0
DWIDTH 7 0
BBX 7 14 0 3
BITMAP
00
00
00
42
42
42
24
24
24
18
18
18
00
00
ENDCHAR
STARTCHAR CAPITAL LETTER W
ENCODING 87
SWIDTH 500 0
DWIDTH 7 0
BBX 7 14 0 3
BITMAP
00
00
00
42
42
42
42
5a
5a
66
66
42
00
00
ENDCHAR
STARTCHAR CAPITAL LETTER X
ENCODING 88
SWIDTH 500 0
DWIDTH 7 0
BBX 7 14 0 3
BITMAP
00
00
00
42
42
24
24
18
24
24
42
42
00
00
ENDCHAR
STARTCHAR CAPITAL LETTER Y
ENCODING 89
SWIDTH 500 0
DWIDTH 7 0
BBX 7 14 0 3
BITMAP
00
00
00
44
44
44
44
28
10
10
10
10
00
00
ENDCHAR
STARTCHAR CAPITAL LETTER Z
ENCODING 90
SWIDTH 500 0
DWIDTH 7 0
BBX 7 14 0 3
BITMAP
00
00
00
7e
02
04
08
10
20
40
40
7e
00
00
ENDCHAR
STARTCHAR LEFT SQUARE BRACKET
ENCODING 91
SWIDTH 500 0
DWIDTH 7 0
BBX 7 14 0 3
BITMAP
00
00
1c
10
10
10
10
10
10
10
10
10
1c
00
ENDCHAR
STARTCHAR REVERSE SOLIDUS
ENCODING 92
SWIDTH 500 0
DWIDTH 7 0
BBX 7 14 0 3
BITMAP
00
00
00
40
40
20
20
10
08
08
04
04
00
00
ENDCHAR
STARTCHAR RIGHT SQUARE BRACKET
ENCODING 93
SWIDTH 500 0
DWIDTH 7 0
BBX 7 14 0 3
BITMAP
00
00
70
10
10
10
10
10
10
10
10
10
70
00
ENDCHAR
STARTCHAR CIRCUMFLEX ACCENT
ENCODING 94
SWIDTH 500 0
DWIDTH 7 0
BBX 7 14 0 3
BITMAP
00
18
24
42
00
00
00
00
00
00
00
00
00
00
ENDCHAR
STARTCHAR LOW LINE
ENCODING 95
SWIDTH 500 0
DWIDTH 7 0
BBX 7 14 0 3
BITMAP
00
00
00
00
00
00
00
00
00
00
00
00
fe
00
ENDCHAR
STARTCHAR GRAVE ACCENT
ENCODING 96
SWIDTH 500 0
DWIDTH 7 0
BBX 7 14 0 3
BITMAP
00
00
18
10
10
08
00
00
00
00
00
00
00
00
ENDCHAR
STARTCHAR SMALL LETTER a
ENCODING 97
SWIDTH 500 0
DWIDTH 7 0
BBX 7 14 0 3
BITMAP
00
00
00
00
00
3c
42
0e
32
42
46
3a
00
00
ENDCHAR
STARTCHAR SMALL LETTER b
ENCODING 98
SWIDTH 500 0
DWIDTH 7 0
BBX 7 14 0 3
BITMAP
00
00
00
40
40
5c
62
42
42
42
62
5c
00
00
ENDCHAR
STARTCHAR SMALL LETTER c
ENCODING 99
SWIDTH 500 0
DWIDTH 7 0
BBX 7 14 0 3
BITMAP
00
00
00
00
00
3c
42
40
40
40
42
3c
00
00
ENDCHAR
STARTCHAR SMALL LETTER d
ENCODING 100
SWIDTH 500 0
DWIDTH 7 0
BBX 7 14 0 3
BITMAP
00
00
00
02
02
3a
46
42
42
42
46
3a
00
00
ENDCHAR
STARTCHAR SMALL LETTER e
ENCODING 101
SWIDTH 500 0
DWIDTH 7 0
BBX 7 14 0 3
BITMAP
00
00
00
00
00
3c
42
42
7e
40
42
3c
00
00
ENDCHAR
STARTCHAR SMALL LETTER f
ENCODING 102
SWIDTH 500 0
DWIDTH 7 0
BBX 7 14 0 3
BITMAP
00
00
00
0c
10
10
7c
10
10
10
10
10
00
00
ENDCHAR
STARTCHAR SMALL LETTER g
ENCODING 103
SWIDTH 500 0
DWIDTH 7 0
BBX 7 14 0 3
BITMAP
00
00
00
00
00
3a
44
44
44
38
20
5c
42
3c
ENDCHAR
STARTCHAR SMALL LETTER h
ENCODING 104
SWIDTH 500 0
DWIDTH 7 0
BBX 7 14 0 3
BITMAP
00
00
00
40
40
5c
62
42
42
42
42
42
00
00
ENDCHAR
STARTCHAR SMALL LETTER i
ENCODING 105
SWIDTH 500 0
DWIDTH 7 0
BBX 7 14 0 3
BITMAP
00
00
10
10
00
30
10
10
10
10
10
7c
00
00
ENDCHAR
STARTCHAR SMALL LETTER j
ENCODING 106
SWIDTH 500 0
DWIDTH 7 0
BBX 7 14 0 3
BITMAP
00
00
04
04
00
0c
04
04
04
04
04
44
44
38
ENDCHAR
STARTCHAR SMALL LETTER k
ENCODING 107
SWIDTH 500 0
DWIDTH 7 0
BBX 7 14 0 3
BITMAP
00
00
00
40
40
44
48
50
60
50
48
44
00
00
ENDCHAR
STARTCHAR SMALL LETTER l
ENCODING 108
SWIDTH 500 0
DWIDTH 7 0
BBX 7 14 0 3
BITMAP
00
00
00
30
10
10
10
10
10
10
10
7c
00
00
ENDCHAR
STARTCHAR SMALL LETTER m
ENCODING 109
SWIDTH 500 0
DWIDTH 7 0
BBX 7 14 0 3
BITMAP
00
00
00
00
00
68
54
54
54
54
54
44
00
00
ENDCHAR
STARTCHAR SMALL LETTER n
ENCODING 110
SWIDTH 500 0
DWIDTH 7 0
BBX 7 14 0 3
BITMAP
00
00
00
00
00
5c
62
42
42
42
42
42
00
00
ENDCHAR
STARTCHAR SMALL LETTER o
ENCODING 111
SWIDTH 500 0
DWIDTH 7 0
BBX 7 14 0 3
BITMAP
00
00
00
00
00
3c
42
42
42
42
42
3c
00
00
ENDCHAR
STARTCHAR SMALL LETTER p
ENCODING 112
SWIDTH 500 0
DWIDTH 7 0
BBX 7 14 0 3
BITMAP
00
00
00
00
00
5c
62
42
42
42
62
5c
40
40
ENDCHAR
STARTCHAR SMALL LETTER q
ENCODING 113
SWIDTH 500 0
DWIDTH 7 0
BBX 7 14 0 3
BITMAP
00
00
00
00
00
3a
46
42
42
42
46
3a
02
02
ENDCHAR
STARTCHAR SMALL LETTER r
ENCODING 114
SWIDTH 500 0
DWIDTH 7 0
BBX 7 14 0 3
BITMAP
00
00
00
00
00
5c
62
42
40
40
40
40
00
00
ENDCHAR
STARTCHAR SMALL LETTER s
ENCODING 115
SWIDTH 500 0
DWIDTH 7 0
BBX 7 14 0 3
BITMAP
00
00
00
00
00
3c
42
40
3c
02
42
3c
00
00
ENDCHAR
STARTCHAR SMALL LETTER t
ENCODING 116
SWIDTH 500 0
DWIDTH 7 0
BBX 7 14 0 3
BITMAP
00
00
00
10
10
7c
10
10
10
10
12
0c
00
00
ENDCHAR
STARTCHAR SMALL LETTER u
ENCODING 117
SWIDTH 500 0
DWIDTH 7 0
BBX 7 14 0 3
BITMAP
00
00
00
00
00
42
42
42
42
42
46
3a
00
00
ENDCHAR
STARTCHAR SMALL LETTER v
ENCODING 118
SWIDTH 500 0
DWIDTH 7 0
BBX 7 14 0 3
BITMAP
00
00
00
00
00
44
44
44
28
28
10
10
00
00
ENDCHAR
STARTCHAR SMALL LETTER w
ENCODING 119
SWIDTH 500 0
DWIDTH 7 0
BBX 7 14 0 3
BITMAP
00
00
00
00
00
44
54
54
54
54
54
28
00
00
ENDCHAR
STARTCHAR SMALL LETTER x
ENCODING 120
SWIDTH 500 0
DWIDTH 7 0
BBX 7 14 0 3
BITMAP
00
00
00
00
00
44
44
28
10
28
44
44
00
00
ENDCHAR
STARTCHAR SMALL LETTER y
ENCODING 121
SWIDTH 500 0
DWIDTH 7 0
BBX 7 14 0 3
BITMAP
00
00
00
00
00
42
42
42
42
46
3a
02
02
3c
ENDCHAR
STARTCHAR SMALL LETTER z
ENCODING 122
SWIDTH 500 0
DWIDTH 7 0
BBX 7 14 0 3
BITMAP
00
00
00
00
00
7e
04
08
10
20
40
7e
00
00
ENDCHAR
STARTCHAR LEFT CURLY BRACKET
ENCODING 123
SWIDTH 500 0
DWIDTH 7 0
BBX 7 14 0 3
BITMAP
00
00
0c
10
10
08
08
10
08
08
10
10
0c
00
ENDCHAR
STARTCHAR VERTICAL LINE
ENCODING 124
SWIDTH 500 0
DWIDTH 7 0
BBX 7 14 0 3
BITMAP
00
10
10
10
10
10
10
10
10
10
10
10
10
10
ENDCHAR
STARTCHAR RIGHT CURLY BRACKET
ENCODING 125
SWIDTH 500 0
DWIDTH 7 0
BBX 7 14 0 3
BITMAP
00
00
60
10
10
20
20
10
20
20
10
10
60
00
ENDCHAR
STARTCHAR TILDE
ENCODING 126
SWIDTH 500 0
DWIDTH 7 0
BBX 7 14 0 3
BITMAP
00
00
00
32
4c
00
00
00
00
00
00
00
00
00
ENDCHAR
STARTCHAR NO-BREAK SPACE
ENCODING 160
SWIDTH 500 0
DWIDTH 7 0
BBX 7 14 0 3
BITMAP
00
00
00
00
00
00
00
00
00
00
00
00
00
00
ENDCHAR
STARTCHAR INVERTED EXCLAMATION MARK
ENCODING 161
SWIDTH 500 0
DWIDTH 7 0
BBX 7 14 0 3
BITMAP
00
00
00
10
10
00
10
10
10
10
10
10
00
00
ENDCHAR
STARTCHAR CENT SIGN
ENCODING 162
SWIDTH 500 0
DWIDTH 7 0
BBX 7 14 0 3
BITMAP
00
00
00
00
10
38
54
50
50
50
54
38
10
00
ENDCHAR
STARTCHAR POUND SIGN
ENCODING 163
SWIDTH 500 0
DWIDTH 7 0
BBX 7 14 0 3
BITMAP
00
00
00
18
24
20
20
78
20
20
78
24
00
00
ENDCHAR
STARTCHAR CURRENCY SIGN
ENCODING 164
SWIDTH 500 0
DWIDTH 7 0
BBX 7 14 0 3
BITMAP
00
00
00
00
42
3c
24
24
3c
42
00
00
00
00
ENDCHAR
STARTCHAR YEN SIGN
ENCODING 165
SWIDTH 500 0
DWIDTH 7 0
BBX 7 14 0 3
BITMAP
00
00
00
44
28
10
7c
10
7c
10
10
10
00
00
ENDCHAR
STARTCHAR BROKEN BAR
ENCODING 166
SWIDTH 500 0
DWIDTH 7 0
BBX 7 14 0 3
BITMAP
00
00
10
10
10
10
00
00
10
10
10
10
00
00
ENDCHAR
STARTCHAR PARAGRAPH SIGN
ENCODING 167
SWIDTH 500 0
DWIDTH 7 0
BBX 7 14 0 3
BITMAP
00
00
38
44
40
38
44
44
38
04
44
38
00
00
ENDCHAR
STARTCHAR DIAERESIS
ENCODING 168
SWIDTH 500 0
DWIDTH 7 0
BBX 7 14 0 3
BITMAP
00
24
24
00
00
00
00
00
00
00
00
00
00
00
ENDCHAR
STARTCHAR COPYRIGHT SIGN
ENCODING 169
SWIDTH 500 0
DWIDTH 7 0
BBX 7 14 0 3
BITMAP
00
3c
42
5a
66
62
62
62
66
5a
42
3c
00
00
ENDCHAR
STARTCHAR FEMININE ORDINAL INDICATOR
ENCODING 170
SWIDTH 500 0
DWIDTH 7 0
BBX 7 14 0 3
BITMAP
00
1c
22
1e
22
26
1a
00
3e
00
00
00
00
00
ENDCHAR
STARTCHAR LEFT ANGLE QUOTATION MARK
ENCODING 171
SWIDTH 500 0
DWIDTH 7 0
BBX 7 14 0 3
BITMAP
00
00
00
00
00
0a
14
28
50
28
14
0a
00
00
ENDCHAR
STARTCHAR NOT SIGN
ENCODING 172
SWIDTH 500 0
DWIDTH 7 0
BBX 7 14 0 3
BITMAP
00
00
00
00
00
00
00
00
f8
08
08
08
00
00
ENDCHAR
STARTCHAR SOFT HYPHEN
ENCODING 173
SWIDTH 500 0
DWIDTH 7 0
BBX 7 14 0 3
BITMAP
00
00
00
00
00
00
00
7c
00
00
00
00
00
00
ENDCHAR
STARTCHAR REGISTERED TRADE MARK SIGN
ENCODING 174
SWIDTH 500 0
DWIDTH 7 0
BBX 7 14 0 3
BITMAP
00
3c
42
7a
66
66
7a
66
66
66
42
3c
00
00
ENDCHAR
STARTCHAR MACRON
ENCODING 175
SWIDTH 500 0
DWIDTH 7 0
BBX 7 14 0 3
BITMAP
3c
00
00
00
00
00
00
00
00
00
00
00
00
00
ENDCHAR
STARTCHAR DEGREE SIGN, RING ABOVE
ENCODING 176
SWIDTH 500 0
DWIDTH 7 0
BBX 7 14 0 3
BITMAP
18
24
18
00
00
00
00
00
00
00
00
00
00
00
ENDCHAR
STARTCHAR PLUS-MINUS SIGN
ENCODING 177
SWIDTH 500 0
DWIDTH 7 0
BBX 7 14 0 3
BITMAP
00
00
00
00
00
10
10
7c
10
10
00
7c
00
00
ENDCHAR
STARTCHAR SUPERSCRIPT TWO
ENCODING 178
SWIDTH 500 0
DWIDTH 7 0
BBX 7 14 0 3
BITMAP
00
18
24
04
08
10
20
3c
00
00
00
00
00
00
ENDCHAR
STARTCHAR SUPERSCRIPT THREE
ENCODING 179
SWIDTH 500 0
DWIDTH 7 0
BBX 7 14 0 3
BITMAP
00
18
24
04
18
04
24
18
00
00
00
00
00
00
ENDCHAR
STARTCHAR ACUTE ACCENT
ENCODING 180
SWIDTH 500 0
DWIDTH 7 0
BBX 7 14 0 3
BITMAP
00
0c
30
00
00
00
00
00
00
00
00
00
00
00
ENDCHAR
STARTCHAR MICRO SIGN
ENCODING 181
SWIDTH 500 0
DWIDTH 7 0
BBX 7 14 0 3
BITMAP
00
00
00
00
00
00
44
44
44
44
6c
54
40
40
ENDCHAR
STARTCHAR PILCROW SIGN
ENCODING 182
SWIDTH 500 0
DWIDTH 7 0
BBX 7 14 0 3
BITMAP
00
00
3e
7a
7a
7a
7a
3a
0a
0a
0a
0a
0a
0e
ENDCHAR
STARTCHAR MIDDLE DOT
ENCODING 183
SWIDTH 500 0
DWIDTH 7 0
BBX 7 14 0 3
BITMAP
00
00
00
00
00
00
10
38
10
00
00
00
00
00
ENDCHAR
STARTCHAR CEDILLA
ENCODING 184
SWIDTH 500 0
DWIDTH 7 0
BBX 7 14 0 3
BITMAP
00
00
00
00
00
00
00
00
00
00
00
00
08
10
ENDCHAR
STARTCHAR SUPERSCRIPT ONE
ENCODING 185
SWIDTH 500 0
DWIDTH 7 0
BBX 7 14 0 3
BITMAP
00
00
10
30
10
10
10
10
00
00
00
00
00
00
ENDCHAR
STARTCHAR MASCULINE ORDINAL INDICATOR
ENCODING 186
SWIDTH 500 0
DWIDTH 7 0
BBX 7 14 0 3
BITMAP
00
00
18
24
24
18
00
3c
00
00
00
00
00
00
ENDCHAR
STARTCHAR RIGHT ANGLE QUOTATION MARK
ENCODING 187
SWIDTH 500 0
DWIDTH 7 0
BBX 7 14 0 3
BITMAP
00
00
00
00
00
50
28
14
0a
14
28
50
00
00
ENDCHAR
STARTCHAR VULGAR FRACTION ONE QUARTER
ENCODING 188
SWIDTH 500 0
DWIDTH 7 0
BBX 7 14 0 3
BITMAP
00
00
20
62
24
24
28
12
16
2a
4e
42
00
00
ENDCHAR
STARTCHAR VULGAR FRACTION ONE HALF
ENCODING 189
SWIDTH 500 0
DWIDTH 7 0
BBX 7 14 0 3
BITMAP
00
00
20
62
24
24
28
14
1a
22
44
4e
00
00
ENDCHAR
STARTCHAR VULGAR FRACTION THREE QUARTERS
ENCODING 190
SWIDTH 500 0
DWIDTH 7 0
BBX 7 14 0 3
BITMAP
00
00
62
12
24
18
68
12
26
2a
4e
02
00
00
ENDCHAR
STARTCHAR INVERTED QUESTION MARK
ENCODING 191
SWIDTH 500 0
DWIDTH 7 0
BBX 7 14 0 3
BITMAP
00
00
10
10
00
10
10
10
20
42
42
3c
00
00
ENDCHAR
STARTCHAR CAPITAL LETTER A WITH GRAVE ACCENT
ENCODING 192
SWIDTH 500 0
DWIDTH 7 0
BBX 7 14 0 3
BITMAP
30
0c
00
18
24
42
42
7e
42
42
42
42
00
00
ENDCHAR
STARTCHAR CAPITAL LETTER A WITH ACUTE ACCENT
ENCODING 193
SWIDTH 500 0
DWIDTH 7 0
BBX 7 14 0 3
BITMAP
0c
30
00
18
24
42
42
7e
42
42
42
42
00
00
ENDCHAR
STARTCHAR CAPITAL LETTER A WITH CIRCUMFLEX ACCENT
ENCODING 194
SWIDTH 500 0
DWIDTH 7 0
BBX 7 14 0 3
BITMAP
18
24
00
18
24
42
42
7e
42
42
42
42
00
00
ENDCHAR
STARTCHAR CAPITAL LETTER A WITH TILDE
ENCODING 195
SWIDTH 500 0
DWIDTH 7 0
BBX 7 14 0 3
BITMAP
32
4c
00
18
24
42
42
7e
42
42
42
42
00
00
ENDCHAR
STARTCHAR CAPITAL LETTER A WITH DIAERESIS
ENCODING 196
SWIDTH 500 0
DWIDTH 7 0
BBX 7 14 0 3
BITMAP
24
24
00
18
24
42
42
7e
42
42
42
42
00
00
ENDCHAR
STARTCHAR CAPITAL LETTER A WITH RING ABOVE
ENCODING 197
SWIDTH 500 0
DWIDTH 7 0
BBX 7 14 0 3
BITMAP
18
24
18
18
24
42
42
7e
42
42
42
42
00
00
ENDCHAR
STARTCHAR CAPITAL DIPHTHONG A WITH E
ENCODING 198
SWIDTH 500 0
DWIDTH 7 0
BBX 7 14 0 3
BITMAP
00
00
00
1e
28
48
48
7e
48
48
48
4e
00
00
ENDCHAR
STARTCHAR CAPITAL LETTER C WITH CEDILLA
ENCODING 199
SWIDTH 500 0
DWIDTH 7 0
BBX 7 14 0 3
BITMAP
00
00
00
3c
42
42
40
40
40
42
42
3c
08
10
ENDCHAR
STARTCHAR CAPITAL LETTER E WITH GRAVE ACCENT
ENCODING 200
SWIDTH 500 0
DWIDTH 7 0
BBX 7 14 0 3
BITMAP
30
0c
00
7e
40
40
40
7c
40
40
40
7e
00
00
ENDCHAR
STARTCHAR CAPITAL LETTER E WITH ACUTE ACCENT
ENCODING 201
SWIDTH 500 0
DWIDTH 7 0
BBX 7 14 0 3
BITMAP
0c
30
00
7e
40
40
40
7c
40
40
40
7e
00
00
ENDCHAR
STARTCHAR CAPITAL LETTER E WITH CIRCUMFLEX ACCENT
ENCODING 202
SWIDTH 500 0
DWIDTH 7 0
BBX 7 14 0 3
BITMAP
18
24
00
7e
40
40
40
7c
40
40
40
7e
00
00
ENDCHAR
STARTCHAR CAPITAL LETTER E WITH DIAERESIS
ENCODING 203
SWIDTH 500 0
DWIDTH 7 0
BBX 7 14 0 3
BITMAP
24
24
00
7e
40
40
40
7c
40
40
40
7e
00
00
ENDCHAR
STARTCHAR CAPITAL LETTER I WITH GRAVE ACCENT
ENCODING 204
SWIDTH 500 0
DWIDTH 7 0
BBX 7 14 0 3
BITMAP
60
18
00
7c
10
10
10
10
10
10
10
7c
00
00
ENDCHAR
STARTCHAR CAPITAL LETTER I WITH ACUTE ACCENT
ENCODING 205
SWIDTH 500 0
DWIDTH 7 0
BBX 7 14 0 3
BITMAP
0c
30
00
7c
10
10
10
10
10
10
10
7c
00
00
ENDCHAR
STARTCHAR CAPITAL LETTER I WITH CIRCUMFLEX ACCENT
ENCODING 206
SWIDTH 500 0
DWIDTH 7 0
BBX 7 14 0 3
BITMAP
10
28
00
7c
10
10
10
10
10
10
10
7c
00
00
ENDCHAR
STARTCHAR CAPITAL LETTER I WITH DIAERESIS
ENCODING 207
SWIDTH 500 0
DWIDTH 7 0
BBX 7 14 0 3
BITMAP
28
28
00
7c
10
10
10
10
10
10
10
7c
00
00
ENDCHAR
STARTCHAR CAPITAL LETTER G WITH BREVE
ENCODING 208
SWIDTH 500 0
DWIDTH 7 0
BBX 7 14 0 3
BITMAP
24
18
00
3c
42
40
40
4e
42
42
46
3a
00
00
ENDCHAR
STARTCHAR CAPITAL LETTER N WITH TILDE
ENCODING 209
SWIDTH 500 0
DWIDTH 7 0
BBX 7 14 0 3
BITMAP
32
4c
00
62
62
52
52
4a
4a
4a
46
46
00
00
ENDCHAR
STARTCHAR CAPITAL LETTER O WITH GRAVE ACCENT
ENCODING 210
SWIDTH 500 0
DWIDTH 7 0
BBX 7 14 0 3
BITMAP
30
0c
00
3c
42
42
42
42
42
42
42
3c
00
00
ENDCHAR
STARTCHAR CAPITAL LETTER O WITH ACUTE ACCENT
ENCODING 211
SWIDTH 500 0
DWIDTH 7 0
BBX 7 14 0 3
BITMAP
0c
30
00
3c
42
42
42
42
42
42
42
3c
00
00
ENDCHAR
STARTCHAR CAPITAL LETTER O WITH CIRCUMFLEX ACCENT
ENCODING 212
SWIDTH 500 0
DWIDTH 7 0
BBX 7 14 0 3
BITMAP
18
24
00
3c
42
42
42
42
42
42
42
3c
00
00
ENDCHAR
STARTCHAR CAPITAL LETTER O WITH TILDE
ENCODING 213
SWIDTH 500 0
DWIDTH 7 0
BBX 7 14 0 3
BITMAP
32
4c
00
3c
42
42
42
42
42
42
42
3c
00
00
ENDCHAR
STARTCHAR CAPITAL LETTER O WITH DIAERESIS
ENCODING 214
SWIDTH 500 0
DWIDTH 7 0
BBX 7 14 0 3
BITMAP
24
24
00
3c
42
42
42
42
42
42
42
3c
00
00
ENDCHAR
STARTCHAR MULTIPLICATION SIGN
ENCODING 215
SWIDTH 500 0
DWIDTH 7 0
BBX 7 14 0 3
BITMAP
00
00
00
00
00
44
28
10
28
44
00
00
00
00
ENDCHAR
STARTCHAR CAPITAL LETTER O WITH OBLIQUE STROKE
ENCODING 216
SWIDTH 500 0
DWIDTH 7 0
BBX 7 14 0 3
BITMAP
00
00
02
3c
46
4a
4a
4a
52
52
62
3c
40
00
ENDCHAR
STARTCHAR CAPITAL LETTER U WITH GRAVE ACCENT
ENCODING 217
SWIDTH 500 0
DWIDTH 7 0
BBX 7 14 0 3
BITMAP
30
0c
00
42
42
42
42
42
42
42
42
3c
00
00
ENDCHAR
STARTCHAR CAPITAL LETTER U WITH ACUTE ACCENT
ENCODING 218
SWIDTH 500 0
DWIDTH 7 0
BBX 7 14 0 3
BITMAP
0c
30
00
42
42
42
42
42
42
42
42
3c
00
00
ENDCHAR
STARTCHAR CAPITAL LETTER U WITH CIRCUMFLEX ACCENT
ENCODING 219
SWIDTH 500 0
DWIDTH 7 0
BBX 7 14 0 3
BITMAP
18
24
00
42
42
42
42
42
42
42
42
3c
00
00
ENDCHAR
STARTCHAR CAPITAL LETTER U WITH DIAERESIS
ENCODING 220
SWIDTH 500 0
DWIDTH 7 0
BBX 7 14 0 3
BITMAP
24
24
00
42
42
42
42
42
42
42
42
3c
00
00
ENDCHAR
STARTCHAR CAPITAL LETTER I WITH DOT ABOVE
ENCODING 221
SWIDTH 500 0
DWIDTH 7 0
BBX 7 14 0 3
BITMAP
10
10
00
7c
10
10
10
10
10
10
10
7c
00
00
ENDCHAR
STARTCHAR CAPITAL LETTER S WITH CEDILLA
ENCODING 222
SWIDTH 500 0
DWIDTH 7 0
BBX 7 14 0 3
BITMAP
00
00
00
3c
42
40
30
0c
02
42
42
3c
08
10
ENDCHAR
STARTCHAR SMALL GERMAN LETTER SHARP s
ENCODING 223
SWIDTH 500 0
DWIDTH 7 0
BBX 7 14 0 3
BITMAP
00
00
00
38
44
44
44
5c
42
42
62
5c
00
00
ENDCHAR
STARTCHAR SMALL LETTER a WITH GRAVE ACCENT
ENCODING 224
SWIDTH 500 0
DWIDTH 7 0
BBX 7 14 0 3
BITMAP
00
00
30
0c
00
3c
42
0e
32
42
46
3a
00
00
ENDCHAR
STARTCHAR SMALL LETTER a WITH ACUTE ACCENT
ENCODING 225
SWIDTH 500 0
DWIDTH 7 0
BBX 7 14 0 3
BITMAP
00
00
0c
30
00
3c
42
0e
32
42
46
3a
00
00
ENDCHAR
STARTCHAR SMALL LETTER a WITH CIRCUMFLEX ACCENT
ENCODING 226
SWIDTH 500 0
DWIDTH 7 0
BBX 7 14 0 3
BITMAP
00
00
18
24
00
3c
42
0e
32
42
46
3a
00
00
ENDCHAR
STARTCHAR SMALL LETTER a WITH TILDE
ENCODING 227
SWIDTH 500 0
DWIDTH 7 0
BBX 7 14 0 3
BITMAP
00
00
32
4c
00
3c
42
0e
32
42
46
3a
00
00
ENDCHAR
STARTCHAR SMALL LETTER a WITH DIAERESIS
ENCODING 228
SWIDTH 500 0
DWIDTH 7 0
BBX 7 14 0 3
BITMAP
00
00
24
24
00
3c
42
0e
32
42
46
3a
00
00
ENDCHAR
STARTCHAR SMALL LETTER a WITH RING ABOVE
ENCODING 229
SWIDTH 500 0
DWIDTH 7 0
BBX 7 14 0 3
BITMAP
00
18
24
18
00
3c
42
0e
32
42
46
3a
00
00
ENDCHAR
STARTCHAR SMALL DIPHTHONG a WITH e
ENCODING 230
SWIDTH 500 0
DWIDTH 7 0
BBX 7 14 0 3
BITMAP
00
00
00
00
00
3c
4a
0a
3e
48
48
3e
00
00
ENDCHAR
STARTCHAR SMALL LETTER c WITH CEDILLA
ENCODING 231
SWIDTH 500 0
DWIDTH 7 0
BBX 7 14 0 3
BITMAP
00
00
00
00
00
3c
42
40
40
40
42
3c
08
10
ENDCHAR
STARTCHAR SMALL LETTER e WITH GRAVE ACCENT
ENCODING 232
SWIDTH 500 0
DWIDTH 7 0
BBX 7 14 0 3
BITMAP
00
00
30
0c
00
3c
42
42
7e
40
42
3c
00
00
ENDCHAR
STARTCHAR SMALL LETTER e WITH ACUTE ACCENT
ENCODING 233
SWIDTH 500 0
DWIDTH 7 0
BBX 7 14 0 3
BITMAP
00
00
0c
30
00
3c
42
42
7e
40
42
3c
00
00
ENDCHAR
STARTCHAR SMALL LETTER e WITH CIRCUMFLEX ACCENT
ENCODING 234
SWIDTH 500 0
DWIDTH 7 0
BBX 7 14 0 3
BITMAP
00
00
18
24
00
3c
42
42
7e
40
42
3c
00
00
ENDCHAR
STARTCHAR SMALL LETTER e WITH DIAERESIS
ENCODING 235
SWIDTH 500 0
DWIDTH 7 0
BBX 7 14 0 3
BITMAP
00
00
24
24
00
3c
42
42
7e
40
42
3c
00
00
ENDCHAR
STARTCHAR SMALL LETTER i WITH GRAVE ACCENT
ENCODING 236
SWIDTH 500 0
DWIDTH 7 0
BBX 7 14 0 3
BITMAP
00
00
60
18
00
30
10
10
10
10
10
7c
00
00
ENDCHAR
STARTCHAR SMALL LETTER i WITH ACUTE ACCENT
ENCODING 237
SWIDTH 500 0
DWIDTH 7 0
BBX 7 14 0 3
BITMAP
00
00
18
60
00
30
10
10
10
10
10
7c
00
00
ENDCHAR
STARTCHAR SMALL LETTER i WITH CIRCUMFLEX ACCENT
ENCODING 238
SWIDTH 500 0
DWIDTH 7 0
BBX 7 14 0 3
BITMAP
00
00
30
48
00
30
10
10
10
10
10
7c
00
00
ENDCHAR
STARTCHAR SMALL LETTER i WITH DIAERESIS
ENCODING 239
SWIDTH 500 0
DWIDTH 7 0
BBX 7 14 0 3
BITMAP
00
00
48
48
00
30
10
10
10
10
10
7c
00
00
ENDCHAR
STARTCHAR SMALL LETTER g WITH BREVE
ENCODING 240
SWIDTH 500 0
DWIDTH 7 0
BBX 7 14 0 3
BITMAP
00
00
24
18
00
3a
44
44
44
38
20
5c
42
3c
ENDCHAR
STARTCHAR SMALL LETTER n WITH TILDE
ENCODING 241
SWIDTH 500 0
DWIDTH 7 0
BBX 7 14 0 3
BITMAP
00
00
32
4c
00
5c
62
42
42
42
42
42
00
00
ENDCHAR
STARTCHAR SMALL LETTER o WITH GRAVE ACCENT
ENCODING 242
SWIDTH 500 0
DWIDTH 7 0
BBX 7 14 0 3
BITMAP
00
00
30
0c
00
3c
42
42
42
42
42
3c
00
00
ENDCHAR
STARTCHAR SMALL LETTER o WITH ACUTE ACCENT
ENCODING 243
SWIDTH 500 0
DWIDTH 7 0
BBX 7 14 0 3
BITMAP
00
00
0c
30
00
3c
42
42
42
42
42
3c
00
00
ENDCHAR
STARTCHAR SMALL LETTER o WITH CIRCUMFLEX ACCENT
ENCODING 244
SWIDTH 500 0
DWIDTH 7 0
BBX 7 14 0 3
BITMAP
00
00
18
24
00
3c
42
42
42
42
42
3c
00
00
ENDCHAR
STARTCHAR SMALL LETTER o WITH TILDE
ENCODING 245
SWIDTH 500 0
DWIDTH 7 0
BBX 7 14 0 3
BITMAP
00
00
32
4c
00
3c
42
42
42
42
42
3c
00
00
ENDCHAR
STARTCHAR SMALL LETTER o WITH DIAERESIS
ENCODING 246
SWIDTH 500 0
DWIDTH 7 0
BBX 7 14 0 3
BITMAP
00
00
24
24
00
3c
42
42
42
42
42
3c
00
00
ENDCHAR
STARTCHAR DIVISION SIGN
ENCODING 247
SWIDTH 500 0
DWIDTH 7 0
BBX 7 14 0 3
BITMAP
00
00
00
00
00
18
00
7e
00
18
00
00
00
00
ENDCHAR
STARTCHAR SMALL LETTER o WITH OBLIQUE STROKE
ENCODING 248
SWIDTH 500 0
DWIDTH 7 0
BBX 7 14 0 3
BITMAP
00
00
00
00
02
3c
46
4a
4a
52
62
3c
40
00
ENDCHAR
STARTCHAR SMALL LETTER u WITH GRAVE ACCENT
ENCODING 249
SWIDTH 500 0
DWIDTH 7 0
BBX 7 14 0 3
BITMAP
00
00
30
0c
00
42
42
42
42
42
46
3a
00
00
ENDCHAR
STARTCHAR SMALL LETTER u WITH ACUTE ACCENT
ENCODING 250
SWIDTH 500 0
DWIDTH 7 0
BBX 7 14 0 3
BITMAP
00
00
0c
30
00
42
42
42
42
42
46
3a
00
00
ENDCHAR
STARTCHAR SMALL LETTER u WITH CIRCUMFLEX ACCENT
ENCODING 251
SWIDTH 500 0
DWIDTH 7 0
BBX 7 14 0 3
BITMAP
00
00
18
24
00
42
42
42
42
42
46
3a
00
00
ENDCHAR
STARTCHAR SMALL LETTER u WITH DIAERESIS
ENCODING 252
SWIDTH 500 0
DWIDTH 7 0
BBX 7 14 0 3
BITMAP
00
00
24
24
00
42
42
42
42
42
46
3a
00
00
ENDCHAR
STARTCHAR SMALL LETTER i WITHOUT DOT
ENCODING 253
SWIDTH 500 0
DWIDTH 7 0
BBX 7 14 0 3
BITMAP
00
00
00
00
00
30
10
10
10
10
10
7c
00
00
ENDCHAR
STARTCHAR SMALL LETTER s WITH CEDILLA
ENCODING 254
SWIDTH 500 0
DWIDTH 7 0
BBX 7 14 0 3
BITMAP
00
00
00
00
00
3c
42
40
3c
02
42
3c
08
10
ENDCHAR
STARTCHAR SMALL LETTER y WITH DIAERESIS
ENCODING 255
SWIDTH 500 0
DWIDTH 7 0
BBX 7 14 0 3
BITMAP
00
00
24
24
00
42
42
42
42
46
3a
02
02
3c
ENDCHAR
ENDFONT
